# xmcd
#
# Track frame offsets: 
#        150
#        14470
#        28244
#        45105
#        59922
#        73054
#        83452
#        100148
#        115875
#        128646
#        140502
#        154332
#
# Disc length: 2269 seconds
#
# Revision: 0
# Processed by: cddbd v1.5.2PL0 Copyright (c) Steve Scherf et al.
# Submitted via: ExactAudioCopyFreeDBPlugin 1.0
#
DISCID=a008db0c
DTITLE=Rough Shop - Benath The South Side Bridge
DYEAR=2012
DGENRE=Alt. Country
TTITLE0=Flashback
TTITLE1=Torn Love Letters
TTITLE2=Flywheel
TTITLE3=Blue Swallow Hotel
TTITLE4=Last Sad Song
TTITLE5=Writer's Block
TTITLE6=Syd
TTITLE7=Reloaded
TTITLE8=Convenience Store
TTITLE9=Ripped Upholstery Blues
TTITLE10=Time
TTITLE11=Suzanna
EXTD=
EXTT0=
EXTT1=
EXTT2=
EXTT3=
EXTT4=
EXTT5=
EXTT6=
EXTT7=
EXTT8=
EXTT9=
EXTT10=
EXTT11=
PLAYORDER=
